<svg xmlns="http://www.w3.org/2000/svg" fill="none" viewBox="0 0 72 73"><path fill="#000" d="m35.34 24.416-10.55 6.09v12.18l10.55 6.09 10.54-6.09v-12.18l-10.54-6.09ZM57.57 23.756H69.7l-6.06-10.5-6.07 10.5ZM57.57 49.426l6.07 10.51 6.06-10.51H57.57ZM29.27 72.776H41.4l-6.06-10.51-6.07 10.51ZM.97 49.426l6.07 10.51 6.07-10.51H.97ZM.97 23.756h12.14l-6.07-10.5-6.07 10.5ZM29.27.416l6.07 10.51L41.4.416H29.27ZM46.914 2.465l-7.04 12.193 12.194 7.04 7.04-12.193-12.194-7.04ZM71.08 29.416H57v14.08h14.08v-14.08ZM52.066 51.475l-12.193 7.04 7.04 12.193 12.193-7.04-7.04-12.193ZM18.608 51.478l-7.04 12.194 12.194 7.04 7.04-12.194-12.194-7.04ZM14.08 29.556H0v14.08h14.08v-14.08ZM23.763 2.47 11.569 9.51l7.04 12.194 12.194-7.04-7.04-12.193Z"/></svg>